/* XPM */
static const char* const copy_xpm[] = {
"32 32 3 1",
" 	c None",
".	c #FFFFFF",
"+	c #0041A2",
"................................",
"................................",
"................................",
"................................",
"................................",
"................................",
".......++++++++++++++...........",
".......++++++++++++++...........",
".......++..........++...........",
".......++..........++...........",
".......++..++++++++++++++.......",
".......++..++++++++++++++.......",
".......++..++..........++.......",
".......++..++..........++.......",
".......++..++..........++.......",
".......++..++..........++.......",
".......++..++..........++.......",
".......++..++..........++.......",
".......++..++..........++.......",
".......++..++..........++.......",
".......++++++..........++.......",
".......++++++..........++.......",
"...........++..........++.......",
"...........++..........++.......",
"...........++++++++++++++.......",
"...........++++++++++++++.......",
"................................",
"................................",
"................................",
"................................",
"................................",
"................................"};
