/* XPM */
static const char* const minus_xpm[] = {
"32 32 3 1",
" 	c None",
".	c #FFFFFF",
"+	c #CF2D2D",
"................................",
"................................",
"................................",
"................................",
"................................",
"................................",
"................................",
"................................",
"................................",
"................................",
"................................",
"................................",
"................................",
"................................",
".......+++++++++++++++++++......",
".......+++++++++++++++++++......",
".......+++++++++++++++++++......",
".......+++++++++++++++++++......",
".......+++++++++++++++++++......",
"................................",
"................................",
"................................",
"................................",
"................................",
"................................",
"................................",
"................................",
"................................",
"................................",
"................................",
"................................",
"................................"};
