/* XPM */
static const char* const plus_xpm[] = {
"32 32 4 1",
" 	c None",
".	c #FFFFFF",
"+	c #FBFCFB",
"@	c #005300",
"................................",
"................................",
"................................",
"................................",
"................................",
"..................+.............",
"..................+.............",
"..............@@@@@.............",
"..............@@@@@.............",
"..............@@@@@.............",
"..............@@@@@.............",
"..............@@@@@.............",
"..............@@@@@.............",
"..............@@@@@.............",
".......@@@@@@@@@@@@@@@@@@@......",
".......@@@@@@@@@@@@@@@@@@@......",
".......@@@@@@@@@@@@@@@@@@@......",
".......@@@@@@@@@@@@@@@@@@@......",
".......@@@@@@@@@@@@@@@@@@@......",
"..............@@@@@.............",
"..............@@@@@.............",
"..............@@@@@.............",
"..............@@@@@.............",
"..............@@@@@.............",
"..............@@@@@.............",
"..............@@@@@.............",
"................................",
"................................",
"................................",
"................................",
"................................",
"................................"};
