/* XPM */
static const char* const wrench_xpm[] = {
"32 32 3 1",
" 	c None",
".	c #FFFFFF",
"+	c #636363",
"................................",
"................................",
"................................",
"................................",
"................................",
"................................",
"................................",
"................................",
"..................++++..........",
".................++++...........",
"................++++............",
"................++++....+.......",
"................++++...++.......",
"................+++++++++.......",
"...............++++++++++.......",
"..............++++++++++........",
".............++++++++++.........",
"............++++++..............",
"...........++++++...............",
"..........++++++................",
".........++++++.................",
"........++++++..................",
"........+++++...................",
".........+++....................",
"................................",
"................................",
"................................",
"................................",
"................................",
"................................",
"................................",
"................................"};
